# xmcd CD database file
#
# Track frame offsets:
#	150
#	5061
#	25018
#	42782
#	64084
#	80585
#	108420
#	126667
#	149376
#	171075
#	191559
#	213709
#	236418
#	238037
#	260707
#	280069
#	297188
#	298716
#	321782
#
# Disc length: 4773 seconds
#
# Revision: 0
# Processed by: cddbd v1.5.1PL0 Copyright (c) Steve Scherf et al.
# Submitted via: CDex 1.51
#
DISCID=2612a313
DTITLE=Chevelle - 2004-12-17-House of Blues-Chicago, IL
DYEAR=2004
DGENRE=Jazz
TTITLE0=Intro
TTITLE1=Another Know It All
TTITLE2=Send The Pain Below
TTITLE3=Forfeit
TTITLE4=The Clincher
TTITLE5=Emotional Drought
TTITLE6=Comfortable Liar
TTITLE7=The Red
TTITLE8=Get Some
TTITLE9=Closure
TTITLE10=Family System
TTITLE11=Grab Thy Hand
TTITLE12=DJ Talking
TTITLE13=Bend The Bracket
TTITLE14=Quiet
TTITLE15=Still Running
TTITLE16=DJ Talking
TTITLE17=Vitamin R
TTITLE18=Wonder What's Next
EXTD=YEAR: 2004
EXTT0=
EXTT1=
EXTT2=
EXTT3=
EXTT4=
EXTT5=
EXTT6=
EXTT7=
EXTT8=
EXTT9=
EXTT10=
EXTT11=
EXTT12=
EXTT13=
EXTT14=
EXTT15=
EXTT16=
EXTT17=
EXTT18=
PLAYORDER=
